<?xml version="1.0" standalone="no"?>
<!DOCTYPE svg PUBLIC "-//W3C//DTD SVG 20010904//EN"
 "http://www.w3.org/TR/2001/REC-SVG-20010904/DTD/svg10.dtd">
<svg version="1.0" xmlns="http://www.w3.org/2000/svg"
 width="500.000000pt" height="500.000000pt" viewBox="0 0 500.000000 500.000000"
 preserveAspectRatio="xMidYMid meet">
<metadata>
Created by potrace 1.11, written by Peter Selinger 2001-2013
</metadata>
<g transform="translate(0.000000,500.000000) scale(0.100000,-0.100000)"
fill="#000000" stroke="none">
<path d="M2298 4829 c-220 -25 -348 -52 -533 -114 -701 -234 -1263 -796 -1499
-1496 -34 -102 -64 -210 -72 -259 -2 -14 -7 -36 -10 -50 -11 -45 -21 -110 -31
-207 -10 -85 -10 -405 0 -498 16 -159 70 -407 108 -500 4 -11 20 -55 35 -98
38 -110 158 -345 237 -463 335 -502 825 -851 1400 -998 72 -19 155 -37 182
-41 28 -4 61 -9 75 -11 198 -29 511 -26 720 7 151 24 409 96 520 146 205 92
343 169 477 265 46 33 88 65 95 71 7 7 34 29 60 50 119 95 285 273 390 417
190 262 349 614 403 895 22 116 36 202 44 280 9 88 8 445 -3 495 -2 14 -7 48
-11 75 -3 28 -15 95 -26 150 -94 455 -326 877 -663 1209 -61 60 -127 120 -146
135 -19 14 -44 34 -55 44 -36 34 -268 184 -355 231 -222 118 -529 218 -770
251 -30 4 -64 9 -75 12 -37 8 -429 10 -497 2z"/>
</g>
</svg>
